<svg width="27" height="25" viewBox="0 0 27 25" fill="none" xmlns="http://www.w3.org/2000/svg">
<g clip-path="url(#clip0_11_4)">
<path fill-rule="evenodd" clip-rule="evenodd" d="M27 5.79412V10.8235C27 14.5271 23.9779 17.5294 20.25 17.5294H16.875V24.2353H0V20.8824L1.57211 17.3125C2.11319 17.4538 2.68373 17.5294 3.27584 17.5294C6.32696 17.5294 8.98654 15.4665 9.72655 12.5258L6.45231 11.7126C6.08793 13.1606 4.77829 14.1765 3.27584 14.1765C3.16894 14.1765 3.06347 14.1715 2.95962 14.1617C1.73116 14.0461 0.729316 13.2636 0.270478 12.217C0.133554 11.9047 0.0449867 11.5688 0.013184 11.2201C-0.0189545 10.8678 0.00688318 10.5023 0.099375 10.1347C0.0993738 10.1347 0.0993762 10.1347 0.099375 10.1347L1.17906 5.84418C1.93028 2.85894 4.63016 0.764706 7.72753 0.764706H16.875L20.25 5.79412H27ZM15.1875 9.14706C16.1195 9.14706 16.875 8.39647 16.875 7.47059C16.875 6.54471 16.1195 5.79412 15.1875 5.79412C14.2555 5.79412 13.5 6.54471 13.5 7.47059C13.5 8.39647 14.2555 9.14706 15.1875 9.14706Z" fill="#8B4513"/>
</g>
<defs>
<clipPath id="clip0_11_4">
<rect width="27" height="24" fill="white" transform="translate(0 0.5)"/>
</clipPath>
</defs>
</svg>
