<svg width="34" height="34" viewBox="0 0 34 34" fill="none" xmlns="http://www.w3.org/2000/svg">
<path d="M4.1875 23.4999C4.1875 22.6025 3.45996 21.8749 2.5625 21.8749C1.66504 21.8749 0.9375 22.6025 0.9375 23.4999H4.1875ZM33.7625 23.4999C33.7625 22.6025 33.0349 21.8749 32.1375 21.8749C31.2401 21.8749 30.5125 22.6025 30.5125 23.4999H33.7625ZM16.0686 24.6671C15.5168 25.3747 15.6429 26.3959 16.3505 26.948C17.0582 27.4998 18.0793 27.3737 18.6314 26.6661L16.0686 24.6671ZM27.0814 15.8327C27.6332 15.1251 27.5071 14.104 26.7995 13.5519C26.0919 13 25.0707 13.1261 24.5186 13.8338L27.0814 15.8327ZM16.0686 26.6661C16.6207 27.3737 17.6419 27.4998 18.3495 26.948C19.0571 26.3959 19.1832 25.3747 18.6314 24.6671L16.0686 26.6661ZM10.1813 13.8338C9.62934 13.1261 8.60822 13 7.90058 13.5519C7.19293 14.104 7.06672 15.1251 7.61868 15.8327L10.1813 13.8338ZM15.725 25.6666C15.725 26.564 16.4526 27.2916 17.35 27.2916C18.2474 27.2916 18.975 26.564 18.975 25.6666H15.725ZM18.975 1.83325C18.975 0.935797 18.2474 0.208252 17.35 0.208252C16.4526 0.208252 15.725 0.935797 15.725 1.83325H18.975ZM0.9375 23.4999V25.6666H4.1875V23.4999H0.9375ZM0.9375 25.6666C0.9375 30.115 4.4639 33.7916 8.9 33.7916V30.5416C6.3359 30.5416 4.1875 28.3981 4.1875 25.6666H0.9375ZM8.9 33.7916H25.8V30.5416H8.9V33.7916ZM25.8 33.7916C30.236 33.7916 33.7625 30.115 33.7625 25.6666H30.5125C30.5125 28.3981 28.364 30.5416 25.8 30.5416V33.7916ZM33.7625 25.6666V23.4999H30.5125V25.6666H33.7625ZM18.6314 26.6661L27.0814 15.8327L24.5186 13.8338L16.0686 24.6671L18.6314 26.6661ZM18.6314 24.6671L10.1813 13.8338L7.61868 15.8327L16.0686 26.6661L18.6314 24.6671ZM18.975 25.6666V1.83325H15.725V25.6666H18.975Z" fill="black"/>
</svg>
