<svg width="28" height="24" viewBox="0 0 28 24" fill="none" xmlns="http://www.w3.org/2000/svg">
<g clip-path="url(#clip0_81_488)">
<path fill-rule="evenodd" clip-rule="evenodd" d="M28 5.57352V10.3934C28 13.9426 24.8659 16.8198 21 16.8198H17.5V23.2463H0V20.0331L1.63034 16.6119C2.19146 16.7474 2.78313 16.8198 3.39717 16.8198C6.56129 16.8198 9.31938 14.8428 10.0868 12.0247L6.69128 11.2454C6.31341 12.6331 4.95527 13.6066 3.39717 13.6066C3.28631 13.6066 3.17693 13.6018 3.06924 13.5925C1.79527 13.4817 0.756327 12.7318 0.280495 11.7288C0.138501 11.4295 0.0466529 11.1076 0.0136723 10.7735C-0.0196565 10.4358 0.00713811 10.0855 0.103056 9.73327C0.103054 9.73327 0.103057 9.73326 0.103056 9.73327L1.22273 5.62149C2.00177 2.76063 4.80165 0.753662 8.01374 0.753662H17.5L21 5.57352H28ZM15.75 8.78675C16.7165 8.78675 17.5 8.06744 17.5 7.18013C17.5 6.29283 16.7165 5.57352 15.75 5.57352C14.7835 5.57352 14 6.29283 14 7.18013C14 8.06744 14.7835 8.78675 15.75 8.78675Z" fill="#F5F5F5"/>
</g>
<defs>
<clipPath id="clip0_81_488">
<rect width="28" height="23" fill="white" transform="translate(0 0.5)"/>
</clipPath>
</defs>
</svg>
